<?xml version="1.0" encoding="UTF-8" standalone="no"?>
<!-- Created with Inkscape (http://www.inkscape.org/) -->

<svg
   width="28.220459mm"
   height="25.537945mm"
   viewBox="0 0 28.220459 25.537945"
   version="1.1"
   id="svg1"
   xmlns="http://www.w3.org/2000/svg"
   xmlns:svg="http://www.w3.org/2000/svg">
  <defs
     id="defs1" />
  <g
     id="layer1"
     transform="translate(-98.49518,-112.7125)">
    <path
       id="path138"
       style="display:inline;fill:#bc2222;fill-opacity:1;stroke-width:1.16743;stroke-dasharray:none"
       d="m 114.52804,124.86892 0.0622,13.27303 h 10.7918 v -11.81526 z m 2.61667,5.59751 1.78326,0.10885 v 3.26764 h -1.78326 z m 3.84501,0.24982 1.61222,0.0981 v 2.95424 h -1.61222 z" />
    <path
       style="display:inline;fill:#ffffff;fill-opacity:1;stroke:none;stroke-width:1.16743;stroke-dasharray:none"
       d="m 106.51165,121.0546 2.51194,-0.0155 0.031,2.49642 h -2.60497 z"
       id="path139" />
    <path
       style="display:inline;fill:#ffffff;fill-opacity:1;stroke-width:1.1676"
       d="m 99.518558,125.86139 -1.023378,-0.12405 v -0.58922 l 8.71423,-10.91606 8.86929,2.01575 v -2.29485 l -0.21707,-0.18606 v -0.5272 l 2.10878,-0.5272 3.10115,0.46517 0.031,0.24809 -0.21708,0.21709 v 4.49667 l 5.83016,7.16366 v 0.71326 h -0.58922 l -1.30248,-0.65124 -9.61357,-1.27147 -0.77529,0.62023 -6.66748,-8.00097 -6.26432,7.90794 v 13.61405 h -2.015762 z"
       id="path140" />
    <path
       id="path141"
       style="display:inline;fill:#bc2222;fill-opacity:1;stroke:none;stroke-width:1.35632"
       d="m 105.10694,129.78437 2.62703,3.53576 2.84713,-3.53576 z m 6.20046,0.95952 -2.8537,3.54475 2.94354,3.9618 h 0.1382 z m -6.85489,0.11782 -0.0864,6.64171 2.61148,-3.24346 z m 3.24449,4.36641 -2.4332,3.02232 h 4.67877 z" />
  </g>
</svg>
